<svg width="16" height="16" viewBox="0 0 16 16" fill="none" xmlns="http://www.w3.org/2000/svg">
<rect width="16" height="16" rx="3" fill="#E8503A"/>
<path d="M5.38 5.78516C5.43208 5.75911 5.47505 5.74609 5.50891 5.74609C5.56099 5.74609 5.61047 5.76953 5.65734 5.81641C5.70422 5.86328 5.755 5.94141 5.80969 6.05078C5.8774 6.1862 5.91125 6.29427 5.91125 6.375C5.91125 6.46354 5.86438 6.53255 5.77063 6.58203L3.48547 7.72266L5.77063 8.86328C5.86438 8.91276 5.91125 8.98177 5.91125 9.07031C5.91125 9.15104 5.8774 9.25911 5.80969 9.39453C5.755 9.50391 5.70422 9.58203 5.65734 9.62891C5.61047 9.67578 5.56099 9.69922 5.50891 9.69922C5.47505 9.69922 5.43208 9.6862 5.38 9.66016L2.33313 8.08984C2.26802 8.05599 2.22115 8.01302 2.1925 7.96094C2.16646 7.90885 2.15344 7.82943 2.15344 7.72266C2.15344 7.61589 2.16646 7.53646 2.1925 7.48438C2.22115 7.43229 2.26802 7.38932 2.33313 7.35547L5.38 5.78516ZM9.16016 4.53516C9.33464 4.53516 9.48047 4.5638 9.59766 4.62109C9.71745 4.67839 9.77734 4.7513 9.77734 4.83984C9.77734 4.86849 9.77214 4.89453 9.76172 4.91797L7.16016 11.2383C7.11328 11.3503 7.00651 11.4062 6.83984 11.4062C6.66536 11.4062 6.51823 11.3776 6.39844 11.3203C6.28125 11.263 6.22266 11.1901 6.22266 11.1016C6.22266 11.0729 6.22786 11.0469 6.23828 11.0234L8.83984 4.70312C8.88672 4.59115 8.99349 4.53516 9.16016 4.53516ZM13.6669 7.35547C13.732 7.38932 13.7776 7.43229 13.8036 7.48438C13.8322 7.53646 13.8466 7.61589 13.8466 7.72266C13.8466 7.82943 13.8322 7.90885 13.8036 7.96094C13.7776 8.01302 13.732 8.05599 13.6669 8.08984L10.62 9.66016C10.5679 9.6862 10.5249 9.69922 10.4911 9.69922C10.439 9.69922 10.3895 9.67578 10.3427 9.62891C10.2958 9.58203 10.245 9.50391 10.1903 9.39453C10.1226 9.25911 10.0887 9.15104 10.0887 9.07031C10.0887 8.98177 10.1356 8.91276 10.2294 8.86328L12.5145 7.72266L10.2294 6.58203C10.1356 6.53255 10.0887 6.46354 10.0887 6.375C10.0887 6.29427 10.1226 6.1862 10.1903 6.05078C10.245 5.94141 10.2958 5.86328 10.3427 5.81641C10.3895 5.76953 10.439 5.74609 10.4911 5.74609C10.5249 5.74609 10.5679 5.75911 10.62 5.78516L13.6669 7.35547Z" fill="white"/>
</svg>
