<svg width="192" height="192" viewBox="0 0 192 192" fill="none" xmlns="http://www.w3.org/2000/svg">
<rect width="192" height="192" rx="39" fill="#E8503A"/>
<path d="M69.8 71.8516C70.3208 71.5911 70.7505 71.4609 71.0891 71.4609C71.6099 71.4609 72.1047 71.6953 72.5734 72.1641C73.0422 72.6328 73.55 73.4141 74.0969 74.5078C74.774 75.862 75.1125 76.9427 75.1125 77.75C75.1125 78.6354 74.6437 79.3255 73.7062 79.8203L50.8547 91.2266L73.7062 102.633C74.6437 103.128 75.1125 103.818 75.1125 104.703C75.1125 105.51 74.774 106.591 74.0969 107.945C73.55 109.039 73.0422 109.82 72.5734 110.289C72.1047 110.758 71.6099 110.992 71.0891 110.992C70.7505 110.992 70.3208 110.862 69.8 110.602L39.3312 94.8984C38.6802 94.5599 38.2115 94.1302 37.925 93.6094C37.6646 93.0885 37.5344 92.2943 37.5344 91.2266C37.5344 90.1589 37.6646 89.3646 37.925 88.8438C38.2115 88.3229 38.6802 87.8932 39.3312 87.5547L69.8 71.8516ZM107.602 59.3516C109.346 59.3516 110.805 59.638 111.977 60.2109C113.174 60.7839 113.773 61.513 113.773 62.3984C113.773 62.6849 113.721 62.9453 113.617 63.1797L87.6016 126.383C87.1328 127.503 86.0651 128.062 84.3984 128.062C82.6536 128.062 81.1823 127.776 79.9844 127.203C78.8125 126.63 78.2266 125.901 78.2266 125.016C78.2266 124.729 78.2786 124.469 78.3828 124.234L104.398 61.0312C104.867 59.9115 105.935 59.3516 107.602 59.3516ZM152.669 87.5547C153.32 87.8932 153.776 88.3229 154.036 88.8438C154.322 89.3646 154.466 90.1589 154.466 91.2266C154.466 92.2943 154.322 93.0885 154.036 93.6094C153.776 94.1302 153.32 94.5599 152.669 94.8984L122.2 110.602C121.679 110.862 121.249 110.992 120.911 110.992C120.39 110.992 119.895 110.758 119.427 110.289C118.958 109.82 118.45 109.039 117.903 107.945C117.226 106.591 116.887 105.51 116.887 104.703C116.887 103.818 117.356 103.128 118.294 102.633L141.145 91.2266L118.294 79.8203C117.356 79.3255 116.887 78.6354 116.887 77.75C116.887 76.9427 117.226 75.862 117.903 74.5078C118.45 73.4141 118.958 72.6328 119.427 72.1641C119.895 71.6953 120.39 71.4609 120.911 71.4609C121.249 71.4609 121.679 71.5911 122.2 71.8516L152.669 87.5547Z" fill="white"/>
</svg>
