<svg width="32" height="32" viewBox="0 0 32 32" fill="none" xmlns="http://www.w3.org/2000/svg">
<rect width="32" height="32" rx="6" fill="#E8503A"/>
<path d="M10.76 11.5703C10.8642 11.5182 10.9501 11.4922 11.0178 11.4922C11.122 11.4922 11.2209 11.5391 11.3147 11.6328C11.4084 11.7266 11.51 11.8828 11.6194 12.1016C11.7548 12.3724 11.8225 12.5885 11.8225 12.75C11.8225 12.9271 11.7288 13.0651 11.5413 13.1641L6.97094 15.4453L11.5413 17.7266C11.7288 17.8255 11.8225 17.9635 11.8225 18.1406C11.8225 18.3021 11.7548 18.5182 11.6194 18.7891C11.51 19.0078 11.4084 19.1641 11.3147 19.2578C11.2209 19.3516 11.122 19.3984 11.0178 19.3984C10.9501 19.3984 10.8642 19.3724 10.76 19.3203L4.66625 16.1797C4.53604 16.112 4.44229 16.026 4.385 15.9219C4.33292 15.8177 4.30688 15.6589 4.30688 15.4453C4.30688 15.2318 4.33292 15.0729 4.385 14.9688C4.44229 14.8646 4.53604 14.7786 4.66625 14.7109L10.76 11.5703ZM18.3203 9.07031C18.6693 9.07031 18.9609 9.1276 19.1953 9.24219C19.4349 9.35677 19.5547 9.5026 19.5547 9.67969C19.5547 9.73698 19.5443 9.78906 19.5234 9.83594L14.3203 22.4766C14.2266 22.7005 14.013 22.8125 13.6797 22.8125C13.3307 22.8125 13.0365 22.7552 12.7969 22.6406C12.5625 22.526 12.4453 22.3802 12.4453 22.2031C12.4453 22.1458 12.4557 22.0938 12.4766 22.0469L17.6797 9.40625C17.7734 9.18229 17.987 9.07031 18.3203 9.07031ZM27.3337 14.7109C27.464 14.7786 27.5551 14.8646 27.6072 14.9688C27.6645 15.0729 27.6931 15.2318 27.6931 15.4453C27.6931 15.6589 27.6645 15.8177 27.6072 15.9219C27.5551 16.026 27.464 16.112 27.3337 16.1797L21.24 19.3203C21.1358 19.3724 21.0499 19.3984 20.9822 19.3984C20.878 19.3984 20.7791 19.3516 20.6853 19.2578C20.5916 19.1641 20.49 19.0078 20.3806 18.7891C20.2452 18.5182 20.1775 18.3021 20.1775 18.1406C20.1775 17.9635 20.2712 17.8255 20.4587 17.7266L25.0291 15.4453L20.4587 13.1641C20.2712 13.0651 20.1775 12.9271 20.1775 12.75C20.1775 12.5885 20.2452 12.3724 20.3806 12.1016C20.49 11.8828 20.5916 11.7266 20.6853 11.6328C20.7791 11.5391 20.878 11.4922 20.9822 11.4922C21.0499 11.4922 21.1358 11.5182 21.24 11.5703L27.3337 14.7109Z" fill="white"/>
</svg>
