<svg width="48" height="48" viewBox="0 0 48 48" fill="none" xmlns="http://www.w3.org/2000/svg">
<rect width="48" height="48" rx="9" fill="#E8503A"/>
<path d="M16.795 17.4092C16.9382 17.3376 17.0564 17.3018 17.1495 17.3018C17.2927 17.3018 17.4288 17.3662 17.5577 17.4951C17.6866 17.624 17.8263 17.8389 17.9766 18.1396C18.1628 18.512 18.2559 18.8092 18.2559 19.0312C18.2559 19.2747 18.127 19.4645 17.8692 19.6006L11.585 22.7373L17.8692 25.874C18.127 26.0101 18.2559 26.1999 18.2559 26.4434C18.2559 26.6654 18.1628 26.9626 17.9766 27.335C17.8263 27.6357 17.6866 27.8506 17.5577 27.9795C17.4288 28.1084 17.2927 28.1729 17.1495 28.1729C17.0564 28.1729 16.9382 28.137 16.795 28.0654L8.41609 23.7471C8.23706 23.654 8.10815 23.5358 8.02938 23.3926C7.95776 23.2493 7.92195 23.0309 7.92195 22.7373C7.92195 22.4437 7.95776 22.2253 8.02938 22.082C8.10815 21.9388 8.23706 21.8206 8.41609 21.7275L16.795 17.4092ZM27.1904 13.9717C27.6702 13.9717 28.0713 14.0505 28.3936 14.208C28.723 14.3656 28.8877 14.5661 28.8877 14.8096C28.8877 14.8883 28.8734 14.96 28.8447 15.0244L21.6904 32.4053C21.5615 32.7132 21.2679 32.8672 20.8096 32.8672C20.3298 32.8672 19.9251 32.7884 19.5957 32.6309C19.2734 32.4733 19.1123 32.2728 19.1123 32.0293C19.1123 31.9505 19.1266 31.8789 19.1553 31.8145L26.3096 14.4336C26.4385 14.1257 26.7321 13.9717 27.1904 13.9717ZM39.5839 21.7275C39.7629 21.8206 39.8883 21.9388 39.9599 22.082C40.0387 22.2253 40.078 22.4437 40.078 22.7373C40.078 23.0309 40.0387 23.2493 39.9599 23.3926C39.8883 23.5358 39.7629 23.654 39.5839 23.7471L31.205 28.0654C31.0618 28.137 30.9436 28.1729 30.8505 28.1729C30.7073 28.1729 30.5712 28.1084 30.4423 27.9795C30.3134 27.8506 30.1737 27.6357 30.0234 27.335C29.8372 26.9626 29.7441 26.6654 29.7441 26.4434C29.7441 26.1999 29.873 26.0101 30.1308 25.874L36.415 22.7373L30.1308 19.6006C29.873 19.4645 29.7441 19.2747 29.7441 19.0312C29.7441 18.8092 29.8372 18.512 30.0234 18.1396C30.1737 17.8389 30.3134 17.624 30.4423 17.4951C30.5712 17.3662 30.7073 17.3018 30.8505 17.3018C30.9436 17.3018 31.0618 17.3376 31.205 17.4092L39.5839 21.7275Z" fill="white"/>
</svg>
