<svg width="512" height="512" viewBox="0 0 512 512" fill="none" xmlns="http://www.w3.org/2000/svg">
<rect width="512" height="512" rx="79" fill="#E8503A"/>
<path d="M174.452 179.813C176.074 179.002 177.411 178.597 178.465 178.597C180.086 178.597 181.626 179.327 183.085 180.786C184.544 182.245 186.124 184.676 187.827 188.081C189.934 192.295 190.988 195.659 190.988 198.172C190.988 200.928 189.529 203.076 186.611 204.616L115.485 240.118L186.611 275.62C189.529 277.16 190.988 279.308 190.988 282.063C190.988 284.576 189.934 287.94 187.827 292.155C186.124 295.559 184.544 297.991 183.085 299.45C181.626 300.909 180.086 301.638 178.465 301.638C177.411 301.638 176.074 301.233 174.452 300.422L79.6185 251.546C77.5921 250.493 76.1332 249.155 75.2416 247.534C74.431 245.913 74.0257 243.441 74.0257 240.118C74.0257 236.794 74.431 234.322 75.2416 232.701C76.1332 231.08 77.5921 229.743 79.6185 228.689L174.452 179.813ZM292.11 140.907C297.541 140.907 302.08 141.798 305.727 143.582C309.456 145.365 311.32 147.634 311.32 150.39C311.32 151.282 311.158 152.092 310.833 152.822L229.86 349.542C228.401 353.027 225.078 354.77 219.89 354.77C214.459 354.77 209.88 353.878 206.151 352.095C202.504 350.312 200.68 348.042 200.68 345.286C200.68 344.395 200.842 343.584 201.167 342.854L282.14 146.135C283.599 142.649 286.922 140.907 292.11 140.907ZM432.381 228.689C434.408 229.743 435.826 231.08 436.637 232.701C437.528 234.322 437.974 236.794 437.974 240.118C437.974 243.441 437.528 245.913 436.637 247.534C435.826 249.155 434.408 250.493 432.381 251.546L337.547 300.422C335.926 301.233 334.589 301.638 333.535 301.638C331.914 301.638 330.374 300.909 328.915 299.45C327.456 297.991 325.876 295.559 324.173 292.155C322.066 287.94 321.012 284.576 321.012 282.063C321.012 279.308 322.471 277.16 325.389 275.62L396.515 240.118L325.389 204.616C322.471 203.076 321.012 200.928 321.012 198.172C321.012 195.659 322.066 192.295 324.173 188.081C325.876 184.676 327.456 182.245 328.915 180.786C330.374 179.327 331.914 178.597 333.535 178.597C334.589 178.597 335.926 179.002 337.547 179.813L432.381 228.689Z" fill="white"/>
</svg>
