<svg width="180" height="180" viewBox="0 0 180 180" fill="none" xmlns="http://www.w3.org/2000/svg">
<rect width="180" height="180" fill="#E8503A"/>
<path d="M63.8 65.8516C64.3208 65.5911 64.7505 65.4609 65.0891 65.4609C65.6099 65.4609 66.1047 65.6953 66.5734 66.1641C67.0422 66.6328 67.55 67.4141 68.0969 68.5078C68.774 69.862 69.1125 70.9427 69.1125 71.75C69.1125 72.6354 68.6437 73.3255 67.7062 73.8203L44.8547 85.2266L67.7062 96.6328C68.6437 97.1276 69.1125 97.8177 69.1125 98.7031C69.1125 99.5104 68.774 100.591 68.0969 101.945C67.55 103.039 67.0422 103.82 66.5734 104.289C66.1047 104.758 65.6099 104.992 65.0891 104.992C64.7505 104.992 64.3208 104.862 63.8 104.602L33.3312 88.8984C32.6802 88.5599 32.2115 88.1302 31.925 87.6094C31.6646 87.0885 31.5344 86.2943 31.5344 85.2266C31.5344 84.1589 31.6646 83.3646 31.925 82.8438C32.2115 82.3229 32.6802 81.8932 33.3312 81.5547L63.8 65.8516ZM101.602 53.3516C103.346 53.3516 104.805 53.638 105.977 54.2109C107.174 54.7839 107.773 55.513 107.773 56.3984C107.773 56.6849 107.721 56.9453 107.617 57.1797L81.6016 120.383C81.1328 121.503 80.0651 122.062 78.3984 122.062C76.6536 122.062 75.1823 121.776 73.9844 121.203C72.8125 120.63 72.2266 119.901 72.2266 119.016C72.2266 118.729 72.2786 118.469 72.3828 118.234L98.3984 55.0312C98.8672 53.9115 99.9349 53.3516 101.602 53.3516ZM146.669 81.5547C147.32 81.8932 147.776 82.3229 148.036 82.8438C148.322 83.3646 148.466 84.1589 148.466 85.2266C148.466 86.2943 148.322 87.0885 148.036 87.6094C147.776 88.1302 147.32 88.5599 146.669 88.8984L116.2 104.602C115.679 104.862 115.249 104.992 114.911 104.992C114.39 104.992 113.895 104.758 113.427 104.289C112.958 103.82 112.45 103.039 111.903 101.945C111.226 100.591 110.887 99.5104 110.887 98.7031C110.887 97.8177 111.356 97.1276 112.294 96.6328L135.145 85.2266L112.294 73.8203C111.356 73.3255 110.887 72.6354 110.887 71.75C110.887 70.9427 111.226 69.862 111.903 68.5078C112.45 67.4141 112.958 66.6328 113.427 66.1641C113.895 65.6953 114.39 65.4609 114.911 65.4609C115.249 65.4609 115.679 65.5911 116.2 65.8516L146.669 81.5547Z" fill="white"/>
</svg>
